<svg xmlns="http://www.w3.org/2000/svg" width="200" height="200" viewBox="0 0 200 200">
  <rect width="200" height="200" rx="40" fill="#4C44C6" />
  <path d="M100 60C77.909 60 60 77.909 60 100C60 122.091 77.909 140 100 140C122.091 140 140 122.091 140 100C140 77.909 122.091 60 100 60ZM100 120C88.954 120 80 111.046 80 100C80 88.954 88.954 80 100 80C111.046 80 120 88.954 120 100C120 111.046 111.046 120 100 120Z" fill="white" />
  <path d="M130 85L110 85L110 75L130 75L130 85Z" fill="white" />
</svg>
